<svg width="50" height="50" viewBox="0 0 50 50" fill="none" xmlns="http://www.w3.org/2000/svg">
<g clip-path="url(#clip0_1_224)">
<path fill-rule="evenodd" clip-rule="evenodd" d="M45.3885 14.6685L43.7545 16.3084C40.214 13.2114 35.6745 11.4792 30.9545 11.4792C27.7766 11.4792 24.6004 12.2992 21.877 13.7563L28.7757 6.83288C29.3204 7.19673 29.9553 7.37951 30.5919 7.37951C31.4991 7.37951 32.4081 7.01566 33.1332 6.28625C34.5851 4.82914 34.5851 2.55037 33.1332 1.09326C32.4064 0.363851 31.4991 0 30.5919 0C29.6847 0 28.7757 0.363851 28.0506 1.09326C26.8711 2.3693 26.6889 4.19026 27.506 5.55684L18.7911 14.3029L17.157 12.663L12.7094 17.1266L14.3434 18.7665L5.44638 27.6954C4.9017 27.3315 4.26681 27.1487 3.63021 27.1487C2.72298 27.1487 1.81404 27.5126 1.08894 28.242C-0.362979 29.6991 -0.362979 31.9779 1.08894 33.435C1.81574 34.0722 2.72298 34.4377 3.63021 34.4377C4.53745 34.4377 5.44638 34.0739 6.17149 33.3445C7.35106 32.1607 7.53319 30.338 6.71617 28.8809L13.6149 21.9575C9.98426 28.9731 10.8013 37.7192 16.1562 43.9132L14.5221 45.6436L19.0617 50.1072L23.5094 45.6436L19.0617 41.1801L17.5179 42.7294C12.2532 36.5337 11.9809 27.6065 16.4285 21.047L17.1553 21.7764L21.6949 17.3128L20.8779 16.5834C23.7834 14.4874 27.3238 13.3942 30.9545 13.3942C35.2217 13.3942 39.2149 14.9435 42.483 17.6767L40.8489 19.226L45.3885 23.6896L49.8362 19.226L45.3885 14.6702V14.6685ZM20.9681 45.6437L19.0617 47.5569L17.1553 45.6437L19.0617 43.7305L20.9681 45.6437V45.6437ZM29.3204 2.45986C29.683 2.09601 30.1375 1.91323 30.5919 1.91323C31.0464 1.91323 31.4992 2.09601 31.8634 2.45986C32.5902 3.18927 32.5902 4.28253 31.8634 5.01024C31.5009 5.37409 31.0464 5.55687 30.5919 5.55687C30.1375 5.55687 29.6847 5.37409 29.3204 5.01024C28.5936 4.37307 28.5936 3.18757 29.3204 2.45986V2.45986ZM4.89998 32.0684C4.53742 32.4323 4.08296 32.615 3.62849 32.615C3.17402 32.615 2.72125 32.4323 2.357 32.0684C1.99444 31.7951 1.81232 31.339 1.81232 30.7924C1.81232 30.3363 1.99444 29.8819 2.357 29.5163C2.71955 29.1508 3.17402 28.9697 3.62849 28.9697C4.08296 28.9697 4.53572 29.1525 4.89998 29.5163C5.62678 30.2457 5.62678 31.4295 4.89998 32.0667V32.0684ZM17.0651 19.2225L15.1588 17.3093L17.0651 15.3961L18.9715 17.3093L17.0651 19.2225V19.2225ZM45.3885 21.5575L43.4821 19.6061L45.3885 17.6547L47.2949 19.6061L45.3885 21.5575V21.5575Z" fill="#333333"/>
</g>
<defs>
<clipPath id="clip0_1_224">
<rect width="50" height="50" fill="white"/>
</clipPath>
</defs>
</svg>
